# xmcd
#
# Track frame offsets: 
#        150
#        16134
#        32374
#        44419
#        56685
#        68506
#        81251
#        92002
#        105602
#        118523
#        132756
#        146208
#        160815
#        174521
#        188897
#        201210
#        214410
#        233332
#        247589
#        263503
#        275311
#        289624
#        300564
#
# Disc length: 4364 seconds
#
# Revision: 1
# Processed by: cddbd v1.5.2PL0 Copyright (c) Steve Scherf et al.
# Submitted via: ExactAudioCopy v0.99pb5
#
DISCID=30110a17
DTITLE=Various Artist - Criollos de Siempre - Vol.  2
DYEAR=1999
DGENRE=Criollo
TTITLE0=Arturo Zambo Cavero - Contigo Peru
TTITLE1=Eva Ayllon - Que somos amantes
TTITLE2=Los caciques - Tus pretenciones
TTITLE3=Los embajadores criollos - Dejalos
TTITLE4=Arturo Zambo Cavero - Nuestro secreto
TTITLE5=Lucha Reyes - Regresa
TTITLE6=Los Chamas - Fina estampa
TTITLE7=Irma and Oswaldo - Imaginacion
TTITLE8=Los embajadores criollos - Vibora
TTITLE9=Luis Abanto Morales - Cholo soy
TTITLE10=Cholo Berrocal - Payaso
TTITLE11=Lucila Campos - Si me faltaras amor
TTITLE12=Los embajadores criollos - El rosario de mi madre
TTITLE13=Arturo Zambo Cavero - Esa es mi tierra 
TTITLE14=Eva Ayllon - Mal paso
TTITLE15=Luis Abanto Morales - El provinciano
TTITLE16=Pepe Vasquez - Jipy jay
TTITLE17=Maritza Rodriguez - Quiero morir
TTITLE18=Eva Ayllon - Huella
TTITLE19=Panchito Jimenez - Amigo guitarrista
TTITLE20=Maritza Rodriguez - Yo soy la guardia nueva
TTITLE21=Los Kipus - Mi cariñito
TTITLE22=Varios Artistas - Seleccion de polkas
EXTD=
EXTT0=
EXTT1=
EXTT2=
EXTT3=
EXTT4=
EXTT5=
EXTT6=
EXTT7=
EXTT8=
EXTT9=
EXTT10=
EXTT11=
EXTT12=
EXTT13=
EXTT14=
EXTT15=
EXTT16=
EXTT17=
EXTT18=
EXTT19=
EXTT20=
EXTT21=
EXTT22=
PLAYORDER=
